<!DOCTYPE svg PUBLIC "-//W3C//DTD SVG 20010904//EN" "http://www.w3.org/TR/2001/REC-SVG-20010904/DTD/svg10.dtd">
<svg version="1.0" xmlns="http://www.w3.org/2000/svg" width="250px" height="90px" viewBox="0 0 2500 900" preserveAspectRatio="xMidYMid meet">
<g id="layer101" fill="#000000" stroke="none">
 <path d="M0 450 l0 -450 100 0 100 0 0 400 0 400 150 0 150 0 0 -300 0 -300 50 0 50 0 0 300 0 300 200 0 200 0 0 -300 0 -300 50 0 50 0 0 300 0 300 200 0 200 0 0 -300 0 -300 50 0 50 0 0 300 0 300 200 0 200 0 0 -300 0 -300 50 0 50 0 0 300 0 300 200 0 200 0 0 50 0 50 -1250 0 -1250 0 0 -450z"/>
 </g>

</svg>